<svg width="542" height="306" viewBox="0 0 542 306" fill="none" xmlns="http://www.w3.org/2000/svg">
<path d="M3.776 59L8.64 47.416H33.984L38.848 59H42.368L23.104 13.56H19.648L0.384 59H3.776ZM21.376 17.272L32.704 44.408H9.856L21.248 17.272H21.376ZM73.183 33.4C70.879 28.92 66.591 25.976 60.255 25.976C50.143 25.976 44.895 34.104 44.895 42.872C44.895 51.64 50.143 59.768 60.255 59.768C66.591 59.768 70.879 56.888 73.183 52.344V59H76.191V11H73.183V33.4ZM73.311 42.872C73.311 50.68 68.831 57.016 60.767 57.016C52.703 57.016 47.967 50.68 47.967 42.872C47.967 35.064 52.703 28.728 60.767 28.728C68.831 28.728 73.311 35.064 73.311 42.872ZM98.082 55.672L85.986 26.744H82.658L96.354 59H99.682L113.506 26.744H110.306L98.082 55.672ZM140.845 41.784V46.328C140.845 51 136.493 57.08 127.853 57.08C124.269 57.08 119.533 55.8 119.533 50.296C119.533 46.584 122.029 44.152 129.005 43.256L140.845 41.784ZM127.853 59.768C133.677 59.768 138.605 57.144 141.037 52.792C141.037 56.952 141.741 59 141.741 59H144.812C144.173 57.656 143.853 54.008 143.853 51.896V38.072C143.853 31.032 139.949 25.976 130.669 25.976C122.22 25.976 118.253 30.136 117.293 35.96H120.301C121.389 30.584 125.357 28.664 130.541 28.664C137.517 28.664 140.845 31.8 140.845 38.008V39.096L128.493 40.632C120.237 41.656 116.461 45.176 116.461 50.232C116.461 56.184 120.429 59.768 127.853 59.768ZM157.776 26.744H154.768V59H157.776V39.544C157.776 32.312 162.704 28.664 168.528 28.664C174.992 28.664 178.064 32.568 178.064 39.096V59H181.072V38.2C181.072 31.224 176.848 25.976 168.784 25.976C161.936 25.976 158.736 30.136 157.776 31.992V26.744ZM189.333 42.872C189.333 51.448 195.157 59.768 205.141 59.768C213.461 59.768 218.581 54.392 220.117 47.672H217.045C215.509 53.432 211.477 57.016 205.141 57.016C197.653 57.016 192.405 51 192.405 42.872C192.405 34.744 197.653 28.728 205.141 28.728C211.477 28.728 215.509 32.312 217.045 38.072H220.117C218.581 31.352 213.461 25.976 205.141 25.976C195.157 25.976 189.333 34.296 189.333 42.872ZM256.123 43.704C256.123 43.704 256.187 42.808 256.187 42.296C256.187 33.336 250.427 25.976 240.827 25.976C231.035 25.976 225.083 34.104 225.083 42.872C225.083 51.64 230.459 59.768 240.827 59.768C248.571 59.768 253.691 54.968 255.611 48.952H252.347C250.811 53.56 246.587 56.952 240.827 56.952C233.211 56.952 228.475 51.064 228.155 43.704H256.123ZM240.827 28.856C247.931 28.856 252.539 33.784 253.115 40.952H228.283C229.051 34.104 233.787 28.856 240.827 28.856ZM290.433 33.4C288.129 28.92 283.841 25.976 277.505 25.976C267.393 25.976 262.145 34.104 262.145 42.872C262.145 51.64 267.393 59.768 277.505 59.768C283.841 59.768 288.129 56.888 290.433 52.344V59H293.441V11H290.433V33.4ZM290.561 42.872C290.561 50.68 286.081 57.016 278.017 57.016C269.953 57.016 265.217 50.68 265.217 42.872C265.217 35.064 269.953 28.728 278.017 28.728C286.081 28.728 290.561 35.064 290.561 42.872Z" fill="#EA5139"/>
<path d="M195.792 255.56H193.04V301H196.176V261.128L213.2 282.824H213.456L230.48 261.128V301H233.616V255.56H230.864L213.328 277.96L195.792 255.56ZM267.657 283.784V288.328C267.657 293 263.305 299.08 254.665 299.08C251.081 299.08 246.345 297.8 246.345 292.296C246.345 288.584 248.841 286.152 255.817 285.256L267.657 283.784ZM254.665 301.768C260.489 301.768 265.417 299.144 267.849 294.792C267.849 298.952 268.553 301 268.553 301H271.625C270.985 299.656 270.665 296.008 270.665 293.896V280.072C270.665 273.032 266.761 267.976 257.481 267.976C249.033 267.976 245.065 272.136 244.105 277.96H247.113C248.201 272.584 252.169 270.664 257.353 270.664C264.329 270.664 267.657 273.8 267.657 280.008V281.096L255.305 282.632C247.049 283.656 243.273 287.176 243.273 292.232C243.273 298.184 247.241 301.768 254.665 301.768ZM291.756 301.768C299.244 301.768 304.236 297.864 304.236 292.552C304.236 279.304 283.692 287.112 283.692 277C283.692 273.544 286.7 270.792 292.396 270.792C297.9 270.792 300.78 274.056 301.164 277.96H304.172C303.788 272.584 299.82 267.976 292.396 267.976C285.036 267.976 280.684 272.392 280.684 277.064C280.684 289.864 301.164 282.504 301.164 292.552C301.164 296.328 297.772 298.952 291.756 298.952C285.996 298.952 281.964 295.816 281.58 291.016H278.572C278.956 296.712 283.18 301.768 291.756 301.768ZM325.37 297.992C325.37 297.992 323.77 298.312 322.298 298.312C318.842 298.312 317.434 296.392 317.434 292.552V271.496H325.562V268.744H317.434V259.144H314.426V268.744H307.642V271.496H314.426V292.68C314.426 298.376 317.37 301.128 322.234 301.128C324.346 301.128 325.37 300.808 325.37 300.808V297.992ZM360.248 285.704C360.248 285.704 360.312 284.808 360.312 284.296C360.312 275.336 354.552 267.976 344.952 267.976C335.16 267.976 329.208 276.104 329.208 284.872C329.208 293.64 334.584 301.768 344.952 301.768C352.696 301.768 357.816 296.968 359.736 290.952H356.472C354.936 295.56 350.712 298.952 344.952 298.952C337.336 298.952 332.6 293.064 332.28 285.704H360.248ZM344.952 270.856C352.056 270.856 356.664 275.784 357.24 282.952H332.408C333.176 276.104 337.912 270.856 344.952 270.856ZM383.614 268.488C383.614 268.488 382.846 268.424 382.526 268.424C376.446 268.424 372.99 271.688 371.774 274.056V268.744H368.83V301H371.838V281.928C371.838 274.888 376.446 271.304 382.078 271.304C382.91 271.304 383.614 271.368 383.614 271.368V268.488ZM385.833 284.872C385.833 293.448 391.657 301.768 401.641 301.768C409.961 301.768 415.081 296.392 416.617 289.672H413.545C412.009 295.432 407.977 299.016 401.641 299.016C394.153 299.016 388.905 293 388.905 284.872C388.905 276.744 394.153 270.728 401.641 270.728C407.977 270.728 412.009 274.312 413.545 280.072H416.617C415.081 273.352 409.961 267.976 401.641 267.976C391.657 267.976 385.833 276.296 385.833 284.872ZM427.526 301V253H424.518V301H427.526ZM460.657 283.784V288.328C460.657 293 456.305 299.08 447.665 299.08C444.081 299.08 439.345 297.8 439.345 292.296C439.345 288.584 441.841 286.152 448.817 285.256L460.657 283.784ZM447.665 301.768C453.489 301.768 458.417 299.144 460.849 294.792C460.849 298.952 461.553 301 461.553 301H464.625C463.985 299.656 463.665 296.008 463.665 293.896V280.072C463.665 273.032 459.761 267.976 450.481 267.976C442.033 267.976 438.065 272.136 437.105 277.96H440.113C441.201 272.584 445.169 270.664 450.353 270.664C457.329 270.664 460.657 273.8 460.657 280.008V281.096L448.305 282.632C440.049 283.656 436.273 287.176 436.273 292.232C436.273 298.184 440.241 301.768 447.665 301.768ZM484.756 301.768C492.244 301.768 497.236 297.864 497.236 292.552C497.236 279.304 476.692 287.112 476.692 277C476.692 273.544 479.7 270.792 485.396 270.792C490.9 270.792 493.78 274.056 494.164 277.96H497.172C496.788 272.584 492.82 267.976 485.396 267.976C478.036 267.976 473.684 272.392 473.684 277.064C473.684 289.864 494.164 282.504 494.164 292.552C494.164 296.328 490.772 298.952 484.756 298.952C478.996 298.952 474.964 295.816 474.58 291.016H471.572C471.956 296.712 476.18 301.768 484.756 301.768ZM515.506 301.768C522.994 301.768 527.986 297.864 527.986 292.552C527.986 279.304 507.442 287.112 507.442 277C507.442 273.544 510.45 270.792 516.146 270.792C521.65 270.792 524.53 274.056 524.914 277.96H527.922C527.538 272.584 523.57 267.976 516.146 267.976C508.786 267.976 504.434 272.392 504.434 277.064C504.434 289.864 524.914 282.504 524.914 292.552C524.914 296.328 521.522 298.952 515.506 298.952C509.746 298.952 505.714 295.816 505.33 291.016H502.322C502.706 296.712 506.93 301.768 515.506 301.768Z" fill="#EA5139"/>
<path d="M120.26 79.8091H216.388V87.4128H129.072V144.641H211.181V152.244H129.072V215.075H217.39V222.678H120.26V79.8091ZM225 79.8091H235.213L280.474 142.64L326.735 79.8091L389.658 0L286.281 149.243L339.552 222.678H328.938L280.474 155.846L231.809 222.678H221.395L275.066 149.243L225 79.8091ZM343.357 87.4128V79.8091H452.903V87.4128H402.436V222.678H393.624V87.4128H343.357Z" fill="white"/>
<path d="M0 79.8091H11.0147L162.901 306L100.133 222.678L9.21227 90.6143L8.81174 222.678H0V79.8091Z" fill="white"/>
<path d="M452.015 212.78C453.837 212.78 455.166 211.392 455.166 209.598C455.166 207.804 453.837 206.416 452.015 206.416C450.215 206.416 448.865 207.804 448.865 209.598C448.865 211.392 450.215 212.78 452.015 212.78ZM460.674 204.408C460.674 209.705 464.51 213.164 470.104 213.164C476.062 213.164 479.663 209.598 479.663 203.404V181.599H474.862V203.383C474.862 206.821 473.126 208.658 470.061 208.658C467.318 208.658 465.453 206.95 465.389 204.408H460.674ZM485.943 204.13C486.285 209.641 490.893 213.164 497.752 213.164C505.081 213.164 509.668 209.47 509.668 203.575C509.668 198.941 507.053 196.378 500.709 194.904L497.302 194.071C493.272 193.132 491.643 191.872 491.643 189.672C491.643 186.895 494.172 185.08 497.966 185.08C501.567 185.08 504.053 186.853 504.503 189.693H509.175C508.896 184.503 504.31 180.851 498.03 180.851C491.279 180.851 486.778 184.503 486.778 189.992C486.778 194.52 489.329 197.211 494.923 198.514L498.909 199.475C503.003 200.436 504.803 201.845 504.803 204.194C504.803 206.928 501.974 208.914 498.116 208.914C493.98 208.914 491.108 207.056 490.7 204.13H485.943Z" fill="white"/>
</svg>
