<svg width="816" height="342" viewBox="0 0 816 342" fill="none" xmlns="http://www.w3.org/2000/svg">
<path d="M5.664 72L12.96 54.624H50.976L58.272 72H63.552L34.656 3.84H29.472L0.576 72H5.664ZM32.064 9.408L49.056 50.112H14.784L31.872 9.408H32.064ZM110.275 33.6C106.819 26.88 100.387 22.464 90.8825 22.464C75.7145 22.464 67.8425 34.656 67.8425 47.808C67.8425 60.96 75.7145 73.152 90.8825 73.152C100.387 73.152 106.819 68.832 110.275 62.016V72H114.787V-5.72205e-06H110.275V33.6ZM110.467 47.808C110.467 59.52 103.747 69.024 91.6505 69.024C79.5545 69.024 72.4505 59.52 72.4505 47.808C72.4505 36.096 79.5545 26.592 91.6505 26.592C103.747 26.592 110.467 36.096 110.467 47.808ZM148.123 67.008L129.979 23.616H124.987L145.531 72H150.523L171.259 23.616H166.459L148.123 67.008ZM212.767 46.176V52.992C212.767 60 206.239 69.12 193.279 69.12C187.903 69.12 180.799 67.2 180.799 58.944C180.799 53.376 184.543 49.728 195.007 48.384L212.767 46.176ZM193.279 73.152C202.015 73.152 209.407 69.216 213.055 62.688C213.055 68.928 214.111 72 214.111 72H218.719C217.759 69.984 217.279 64.512 217.279 61.344V40.608C217.279 30.048 211.423 22.464 197.503 22.464C184.831 22.464 178.879 28.704 177.439 37.44H181.951C183.583 29.376 189.535 26.496 197.311 26.496C207.775 26.496 212.767 31.2 212.767 40.512V42.144L194.239 44.448C181.855 45.984 176.191 51.264 176.191 58.848C176.191 67.776 182.143 73.152 193.279 73.152ZM238.663 23.616H234.151V72H238.663V42.816C238.663 31.968 246.055 26.496 254.791 26.496C264.487 26.496 269.095 32.352 269.095 42.144V72H273.607V40.8C273.607 30.336 267.271 22.464 255.175 22.464C244.903 22.464 240.103 28.704 238.663 31.488V23.616ZM286.499 47.808C286.499 60.672 295.235 73.152 310.211 73.152C322.691 73.152 330.371 65.088 332.675 55.008H328.067C325.763 63.648 319.715 69.024 310.211 69.024C298.979 69.024 291.107 60 291.107 47.808C291.107 35.616 298.979 26.592 310.211 26.592C319.715 26.592 325.763 31.968 328.067 40.608H332.675C330.371 30.528 322.691 22.464 310.211 22.464C295.235 22.464 286.499 34.944 286.499 47.808ZM387.184 49.056C387.184 49.056 387.28 47.712 387.28 46.944C387.28 33.504 378.64 22.464 364.24 22.464C349.552 22.464 340.624 34.656 340.624 47.808C340.624 60.96 348.688 73.152 364.24 73.152C375.856 73.152 383.536 65.952 386.416 56.928H381.52C379.216 63.84 372.88 68.928 364.24 68.928C352.816 68.928 345.712 60.096 345.232 49.056H387.184ZM364.24 26.784C374.896 26.784 381.808 34.176 382.672 44.928H345.424C346.576 34.656 353.68 26.784 364.24 26.784ZM439.15 33.6C435.694 26.88 429.262 22.464 419.758 22.464C404.59 22.464 396.718 34.656 396.718 47.808C396.718 60.96 404.59 73.152 419.758 73.152C429.262 73.152 435.694 68.832 439.15 62.016V72H443.662V-5.72205e-06H439.15V33.6ZM439.342 47.808C439.342 59.52 432.622 69.024 420.526 69.024C408.43 69.024 401.326 59.52 401.326 47.808C401.326 36.096 408.43 26.592 420.526 26.592C432.622 26.592 439.342 36.096 439.342 47.808Z" fill="#EA5139"/>
<path d="M287.688 269.84H283.56V338H288.264V278.192L313.8 310.736H314.184L339.72 278.192V338H344.424V269.84H340.296L313.992 303.44L287.688 269.84ZM395.986 312.176V318.992C395.986 326 389.458 335.12 376.498 335.12C371.122 335.12 364.018 333.2 364.018 324.944C364.018 319.376 367.762 315.728 378.226 314.384L395.986 312.176ZM376.498 339.152C385.234 339.152 392.626 335.216 396.274 328.688C396.274 334.928 397.33 338 397.33 338H401.938C400.978 335.984 400.498 330.512 400.498 327.344V306.608C400.498 296.048 394.642 288.464 380.722 288.464C368.049 288.464 362.098 294.704 360.658 303.44H365.17C366.802 295.376 372.754 292.496 380.53 292.496C390.994 292.496 395.986 297.2 395.986 306.512V308.144L377.458 310.448C365.074 311.984 359.41 317.264 359.41 324.848C359.41 333.776 365.362 339.152 376.498 339.152ZM432.634 339.152C443.866 339.152 451.354 333.296 451.354 325.328C451.354 305.456 420.538 317.168 420.538 302C420.538 296.816 425.05 292.688 433.594 292.688C441.85 292.688 446.17 297.584 446.746 303.44H451.258C450.682 295.376 444.73 288.464 433.594 288.464C422.554 288.464 416.026 295.088 416.026 302.096C416.026 321.296 446.746 310.256 446.746 325.328C446.746 330.992 441.658 334.928 432.634 334.928C423.994 334.928 417.946 330.224 417.37 323.024H412.858C413.434 331.568 419.77 339.152 432.634 339.152ZM483.554 333.488C483.554 333.488 481.154 333.968 478.946 333.968C473.762 333.968 471.65 331.088 471.65 325.328V293.744H483.842V289.616H471.65V275.216H467.138V289.616H456.962V293.744H467.138V325.52C467.138 334.064 471.554 338.192 478.85 338.192C482.018 338.192 483.554 337.712 483.554 337.712V333.488ZM536.371 315.056C536.371 315.056 536.467 313.712 536.467 312.944C536.467 299.504 527.827 288.464 513.427 288.464C498.739 288.464 489.811 300.656 489.811 313.808C489.811 326.96 497.875 339.152 513.427 339.152C525.043 339.152 532.723 331.952 535.603 322.928H530.707C528.403 329.84 522.067 334.928 513.427 334.928C502.003 334.928 494.899 326.096 494.419 315.056H536.371ZM513.427 292.784C524.083 292.784 530.995 300.176 531.859 310.928H494.611C495.763 300.656 502.867 292.784 513.427 292.784ZM571.921 289.232C571.921 289.232 570.769 289.136 570.289 289.136C561.169 289.136 555.985 294.032 554.161 297.584V289.616H549.745V338H554.257V309.392C554.257 298.832 561.169 293.456 569.617 293.456C570.865 293.456 571.921 293.552 571.921 293.552V289.232ZM575.749 313.808C575.749 326.672 584.485 339.152 599.461 339.152C611.941 339.152 619.621 331.088 621.925 321.008H617.317C615.013 329.648 608.965 335.024 599.461 335.024C588.229 335.024 580.357 326 580.357 313.808C580.357 301.616 588.229 292.592 599.461 292.592C608.965 292.592 615.013 297.968 617.317 306.608H621.925C619.621 296.528 611.941 288.464 599.461 288.464C584.485 288.464 575.749 300.944 575.749 313.808ZM638.788 338V266H634.276V338H638.788ZM688.986 312.176V318.992C688.986 326 682.458 335.12 669.498 335.12C664.122 335.12 657.018 333.2 657.018 324.944C657.018 319.376 660.762 315.728 671.226 314.384L688.986 312.176ZM669.498 339.152C678.234 339.152 685.626 335.216 689.274 328.688C689.274 334.928 690.33 338 690.33 338H694.938C693.978 335.984 693.498 330.512 693.498 327.344V306.608C693.498 296.048 687.642 288.464 673.722 288.464C661.049 288.464 655.098 294.704 653.658 303.44H658.17C659.802 295.376 665.754 292.496 673.53 292.496C683.994 292.496 688.986 297.2 688.986 306.512V308.144L670.458 310.448C658.074 311.984 652.41 317.264 652.41 324.848C652.41 333.776 658.362 339.152 669.498 339.152ZM725.634 339.152C736.866 339.152 744.354 333.296 744.354 325.328C744.354 305.456 713.538 317.168 713.538 302C713.538 296.816 718.05 292.688 726.594 292.688C734.85 292.688 739.17 297.584 739.746 303.44H744.258C743.682 295.376 737.73 288.464 726.594 288.464C715.554 288.464 709.026 295.088 709.026 302.096C709.026 321.296 739.746 310.256 739.746 325.328C739.746 330.992 734.658 334.928 725.634 334.928C716.994 334.928 710.946 330.224 710.37 323.024H705.858C706.434 331.568 712.77 339.152 725.634 339.152ZM772.259 339.152C783.491 339.152 790.979 333.296 790.979 325.328C790.979 305.456 760.163 317.168 760.163 302C760.163 296.816 764.675 292.688 773.219 292.688C781.475 292.688 785.795 297.584 786.371 303.44H790.883C790.307 295.376 784.355 288.464 773.219 288.464C762.179 288.464 755.651 295.088 755.651 302.096C755.651 321.296 786.371 310.256 786.371 325.328C786.371 330.992 781.283 334.928 772.259 334.928C763.619 334.928 757.571 330.224 756.995 323.024H752.483C753.059 331.568 759.395 339.152 772.259 339.152Z" fill="#EA5139"/>
<path d="M529.821 89.0665H668.645V114.559H613.575V248.67H586.038V114.559H529.821V89.0665Z" fill="white"/>
<path d="M301.509 89.0665V114.559H190.232V155.568H279.721V181.06H190.232V223.178H301.509V248.67H162.697V114.559H162.686V89.0665H301.509Z" fill="white"/>
<path d="M370.828 89.1331H334.793L463.862 248.736H500.002L435.459 168.99L499.899 89.2549L463.862 89.3103L417.418 146.698L370.828 89.1331Z" fill="white"/>
<path d="M407.805 203.139L389.759 180.816L334.689 248.858H370.828L407.805 203.139Z" fill="white"/>
<path fill-rule="evenodd" clip-rule="evenodd" d="M163.662 248.67L34.4189 89H0V248.603H27.5351V123.115L129.071 248.67H163.662Z" fill="white"/>
<path d="M674.834 247.695C672.818 247.695 671.102 247 669.666 245.61C668.23 244.22 667.52 242.537 667.538 240.543C667.52 238.605 668.23 236.94 669.666 235.55C671.102 234.16 672.818 233.465 674.834 233.465C676.774 233.465 678.472 234.16 679.908 235.55C681.364 236.94 682.09 238.605 682.111 240.543C682.09 241.86 681.755 243.067 681.083 244.146C680.393 245.244 679.517 246.104 678.415 246.726C677.333 247.366 676.139 247.695 674.834 247.695Z" fill="white"/>
<path d="M721.831 180.459H734.033V227.228C734.015 231.526 733.08 235.202 731.254 238.294C729.407 241.385 726.85 243.744 723.567 245.408C720.302 247.055 716.477 247.896 712.13 247.896C708.155 247.896 704.592 247.183 701.421 245.793C698.249 244.403 695.73 242.317 693.884 239.574C692.016 236.83 691.102 233.41 691.102 229.313H703.324C703.342 231.105 703.753 232.66 704.536 233.959C705.319 235.257 706.401 236.245 707.782 236.94C709.18 237.635 710.786 237.983 712.595 237.983C714.555 237.983 716.234 237.58 717.595 236.757C718.957 235.952 720.002 234.745 720.731 233.135C721.439 231.544 721.813 229.569 721.831 227.228V180.459Z" fill="white"/>
<path d="M784.238 198.749C783.941 195.914 782.634 193.701 780.358 192.128C778.062 190.537 775.097 189.75 771.458 189.75C768.903 189.75 766.702 190.135 764.873 190.884C763.045 191.653 761.627 192.677 760.656 193.975C759.687 195.274 759.201 196.756 759.163 198.42C759.163 199.81 759.499 201.017 760.152 202.023C760.805 203.048 761.681 203.907 762.82 204.602C763.939 205.316 765.189 205.901 766.552 206.376C767.932 206.852 769.313 207.254 770.693 207.584L777.055 209.138C779.612 209.724 782.094 210.51 784.462 211.516C786.831 212.504 788.977 213.766 790.861 215.284C792.746 216.802 794.239 218.631 795.339 220.771C796.44 222.911 797 225.417 797 228.307C797 232.203 795.993 235.623 793.958 238.586C791.925 241.531 788.996 243.836 785.152 245.5C781.327 247.146 776.701 247.988 771.253 247.988C765.992 247.988 761.402 247.183 757.54 245.573C753.661 243.982 750.636 241.641 748.454 238.568C746.271 235.495 745.096 231.745 744.928 227.337H757.018C757.186 229.642 757.933 231.563 759.201 233.117C760.488 234.654 762.167 235.788 764.22 236.556C766.291 237.306 768.603 237.69 771.16 237.69C773.828 237.69 776.179 237.287 778.212 236.501C780.227 235.714 781.812 234.617 782.951 233.191C784.108 231.782 784.687 230.118 784.705 228.215C784.687 226.478 784.163 225.033 783.156 223.899C782.13 222.765 780.712 221.814 778.902 221.046C777.075 220.277 774.947 219.582 772.522 218.979L764.798 217.04C759.219 215.632 754.797 213.492 751.569 210.62C748.324 207.748 746.718 203.944 746.718 199.17C746.718 195.256 747.8 191.817 749.985 188.873C752.148 185.928 755.115 183.641 758.865 182.014C762.634 180.367 766.888 179.562 771.625 179.562C776.44 179.562 780.655 180.367 784.295 182.014C787.932 183.641 790.788 185.91 792.857 188.799C794.929 191.689 796.011 195 796.067 198.749H784.238Z" fill="white"/>
</svg>
